<?xml version="1.0" encoding="UTF-8"?>
<!DOCTYPE svg PUBLIC "-//W3C//DTD SVG 1.1//EN" "http://www.w3.org/Graphics/SVG/1.1/DTD/svg11.dtd">
<!-- Creator: CorelDRAW X7 -->
<svg xmlns="http://www.w3.org/2000/svg" xml:space="preserve" width="8.5in" height="11in" version="1.1" style="shape-rendering:geometricPrecision; text-rendering:geometricPrecision; image-rendering:optimizeQuality; fill-rule:evenodd; clip-rule:evenodd"
viewBox="0 0 8500 11000"
 xmlns:xlink="http://www.w3.org/1999/xlink">
 <defs>
  <style type="text/css">
   <![CDATA[
    .str1 {stroke:#373435;stroke-width:6.94488}
    .str0 {stroke:#373435;stroke-width:3}
    .fil2 {fill:none}
    .fil0 {fill:#373435}
    .fil1 {fill:#373435}
   ]]>
  </style>
 </defs>
 <g id="Layer_x0020_1">
  <metadata id="CorelCorpID_0Corel-Layer"/>
  <g id="_483182536">
   <path class="fil0" d="M2709 4553c0,7 -1,12 -1,18l-132 0c1,13 7,24 16,33 9,8 20,12 33,12 19,0 33,-8 41,-24l38 0c-5,16 -14,29 -28,39 -14,10 -31,15 -51,15 -16,0 -31,-4 -44,-11 -13,-7 -23,-18 -30,-31 -8,-14 -11,-29 -11,-47 0,-18 3,-33 10,-46 8,-14 18,-24 31,-31 13,-8 27,-11 44,-11 17,0 31,3 44,10 12,7 22,17 29,30 7,13 11,27 11,44zm-37 -11c0,-13 -5,-24 -14,-32 -9,-7 -21,-11 -34,-11 -13,0 -23,3 -32,11 -8,8 -14,19 -15,32l95 0zm107 -129l0 230 -35 0 0 -230 35 0zm83 84c6,-8 14,-15 24,-20 11,-6 22,-8 35,-8 15,0 29,3 41,11 13,7 22,17 29,31 8,13 11,28 11,46 0,17 -3,32 -11,46 -7,13 -16,24 -29,32 -12,7 -26,11 -41,11 -13,0 -24,-3 -35,-8 -10,-5 -18,-12 -24,-20l0 107 -36 0 0 -254 36 0 0 26zm104 60c0,-12 -3,-23 -7,-31 -5,-9 -12,-15 -20,-20 -8,-4 -16,-7 -25,-7 -9,0 -18,3 -26,7 -8,5 -14,12 -19,20 -5,9 -7,19 -7,31 0,12 2,22 7,31 5,9 11,16 19,20 8,5 17,7 26,7 9,0 17,-2 25,-7 8,-5 15,-11 20,-20 4,-9 7,-20 7,-31zm107 -86l0 172 -36 0 0 -172 36 0zm35 86c0,-18 3,-33 10,-46 8,-14 17,-24 30,-31 12,-8 26,-11 41,-11 11,0 22,2 33,7 11,5 20,11 26,19l0 -82 36 0 0 230 -36 0 0 -26c-6,9 -14,15 -24,21 -10,5 -22,8 -35,8 -15,0 -29,-4 -41,-11 -13,-8 -22,-19 -30,-32 -7,-14 -10,-29 -10,-46zm140 0c0,-12 -2,-22 -7,-31 -5,-8 -11,-15 -19,-20 -8,-4 -17,-7 -26,-7 -9,0 -17,3 -25,7 -8,5 -15,11 -20,20 -4,8 -7,19 -7,31 0,11 3,22 7,31 5,9 12,15 20,20 8,5 16,7 25,7 9,0 18,-2 26,-7 8,-4 14,-11 19,-20 5,-9 7,-19 7,-31zm71 0c0,-18 4,-33 11,-46 7,-14 17,-24 29,-31 12,-8 26,-11 41,-11 13,0 25,2 35,8 10,5 18,11 24,19l0 -25 36 0 0 172 -36 0 0 -25c-6,8 -14,14 -24,20 -11,5 -22,8 -36,8 -14,0 -28,-4 -40,-11 -12,-8 -22,-19 -29,-32 -7,-14 -11,-29 -11,-46zm140 0c0,-12 -2,-22 -7,-31 -5,-8 -11,-15 -19,-20 -8,-4 -16,-7 -26,-7 -9,0 -17,3 -25,7 -8,5 -14,11 -19,20 -5,8 -8,19 -8,31 0,11 3,22 8,31 5,9 11,15 19,20 8,5 17,7 25,7 10,0 18,-2 26,-7 8,-4 14,-11 19,-20 5,-9 7,-19 7,-31zm206 -57l0 95c0,7 1,12 4,14 3,3 8,5 15,5l22 0 0 29 -28 0c-16,0 -28,-4 -37,-11 -8,-8 -12,-20 -12,-37l0 -95 -21 0 0 -29 21 0 0 -42 36 0 0 42 41 0 0 29 -41 0zm231 53c0,7 0,12 -1,18l-131 0c1,13 6,24 15,33 9,8 21,12 34,12 19,0 32,-8 40,-24l39 0c-6,16 -15,29 -29,39 -13,10 -30,15 -50,15 -17,0 -31,-4 -44,-11 -13,-7 -23,-18 -31,-31 -7,-14 -11,-29 -11,-47 0,-18 4,-33 11,-46 7,-14 17,-24 30,-31 13,-8 28,-11 45,-11 16,0 30,3 43,10 13,7 23,17 30,30 7,13 10,27 10,44zm-37 -11c0,-13 -5,-24 -14,-32 -9,-7 -20,-11 -34,-11 -12,0 -22,3 -31,11 -9,8 -14,19 -16,32l95 0zm60 15c0,-18 4,-33 11,-46 7,-14 17,-24 30,-31 13,-8 27,-11 44,-11 20,0 38,5 51,14 14,10 23,24 28,43l-39 0c-3,-9 -8,-16 -15,-20 -6,-5 -15,-7 -25,-7 -15,0 -27,5 -35,15 -9,10 -13,25 -13,43 0,19 4,33 13,43 8,11 20,16 35,16 20,0 34,-9 40,-27l39 0c-5,17 -15,31 -28,42 -14,10 -31,15 -51,15 -17,0 -31,-4 -44,-11 -13,-7 -23,-18 -30,-31 -7,-14 -11,-29 -11,-47zm288 -88c13,0 25,2 35,8 10,6 18,14 24,25 6,11 9,24 9,40l0 101 -35 0 0 -96c0,-15 -4,-27 -11,-35 -8,-8 -19,-13 -32,-13 -13,0 -24,5 -32,13 -7,8 -11,20 -11,35l0 96 -36 0 0 -230 36 0 0 78c6,-7 13,-12 23,-16 9,-4 19,-6 30,-6z"/>
   <polygon class="fil1 str0" points="3045,4415 3037,4433 3045,4452 3065,4452 3074,4433 3065,4415 "/>
  </g>
  <g id="_483181744">
   <polyline class="fil2 str1" points="2731,4366 2440,4366 2440,4772 3138,4772 "/>
   <polyline class="fil2 str1" points="4084,4771 4374,4771 4374,4365 3677,4365 "/>
  </g>
 </g>
</svg>
