<?xml version="1.0" encoding="UTF-8"?>
<!DOCTYPE svg PUBLIC "-//W3C//DTD SVG 1.1//EN" "http://www.w3.org/Graphics/SVG/1.1/DTD/svg11.dtd">
<!-- Creator: CorelDRAW X7 -->
<svg xmlns="http://www.w3.org/2000/svg" xml:space="preserve" width="0.226449in" height="0.214067in" version="1.1" style="shape-rendering:geometricPrecision; text-rendering:geometricPrecision; image-rendering:optimizeQuality; fill-rule:evenodd; clip-rule:evenodd"
viewBox="0 0 236 223"
 xmlns:xlink="http://www.w3.org/1999/xlink">
 <defs>
  <style type="text/css">
   <![CDATA[
    .fil0 {fill:#EDE7E3}
   ]]>
  </style>
 </defs>
 <g id="Layer_x0020_1">
  <metadata id="CorelCorpID_0Corel-Layer"/>
  <g id="_1876710060048">
   <path class="fil0" d="M81 120l0 103 28 0 0 -37 9 -15 9 15 0 37 28 0 0 -104c0,-1 -8,-12 -9,-14l-9 -14c-4,-5 -6,-9 -10,-14l-10 -14c-1,3 -36,54 -36,57zm23 -1l10 0 0 -8 8 0 0 8 10 0 0 8 -10 0 0 12 -8 0 0 -12 -10 0 0 -8z"/>
   <path class="fil0" d="M23 146l0 26 -23 0 0 51 37 0c0,-18 -1,-14 5,-24 1,-2 3,-7 5,-7 0,3 8,13 8,16l0 15 21 0 0 -102 -27 12c-5,3 -23,12 -26,13z"/>
   <path class="fil0" d="M160 223l21 0c0,-17 -2,-14 4,-23 1,-2 4,-7 4,-8 1,0 10,14 10,15l0 16 37 0 0 -51 -23 0 0 -26c-4,-1 -9,-5 -13,-6 -5,-2 -37,-19 -40,-19l0 102z"/>
   <path class="fil0" d="M115 8l-11 0 0 6 11 0 0 18c0,1 -2,3 -2,4 -12,18 -24,38 -36,56l-8 11c-1,2 -16,8 -20,10 -3,2 -5,3 -8,4l-25 12 0 11 33 -16c3,-1 5,-3 8,-4l17 -8c2,-1 1,-1 3,-3l16 -26c2,-2 4,-5 5,-7 2,-3 4,-5 5,-7l15 -22c1,0 12,18 14,21l27 41c2,3 1,2 7,5l21 10c3,1 5,3 8,4 3,1 5,2 8,4 3,1 6,2 9,4l8 4 0 -11 -33 -16c-1,0 -3,-1 -4,-2 -2,0 -3,-1 -4,-2 -3,-1 -6,-2 -9,-4 -4,-2 -3,-1 -6,-6l-14 -22c-2,-3 -3,-5 -5,-7 -3,-5 -24,-37 -24,-38l0 -18 11 0 0 -6 -11 0 0 -8 -6 0 0 8z"/>
  </g>
 </g>
</svg>
